HIERARCHY
ROOT joint_0
{
	OFFSET 0.000000 0.000000 0.000000
	CHANNELS 6 Xposition Yposition Zposition Zrotation Yrotation Xrotation 
	JOINT joint_1
	{
		OFFSET 6.590088 -1.122192 114.019043
		CHANNELS 3 Zrotation Yrotation Xrotation
		JOINT joint_2
		{
			OFFSET -5.956055 -0.820435 104.151001
			CHANNELS 3 Zrotation Yrotation Xrotation
			JOINT joint_3
			{
				OFFSET -7.343506 -1.103027 103.942993
				CHANNELS 3 Zrotation Yrotation Xrotation
				JOINT joint_4
				{
					OFFSET 3.109131 -2.857056 147.715942
					CHANNELS 3 Zrotation Yrotation Xrotation
					JOINT joint_5
					{
						OFFSET 28.592285 -2.852295 87.703979
						CHANNELS 3 Zrotation Yrotation Xrotation
						End Site
						{
							OFFSET 0.000000 0.000000 0.000000
						}
					}
				}
				JOINT joint_6
				{
					OFFSET -0.332520 -33.687378 82.401978
					CHANNELS 3 Zrotation Yrotation Xrotation
					JOINT joint_7
					{
						OFFSET -7.397461 -168.719177 -22.750977
						CHANNELS 3 Zrotation Yrotation Xrotation
						JOINT joint_8
						{
							OFFSET 17.065918 -24.903137 -272.721069
							CHANNELS 3 Zrotation Yrotation Xrotation
							JOINT joint_9
							{
								OFFSET 33.311279 -37.031616 -278.192993
								CHANNELS 3 Zrotation Yrotation Xrotation
								End Site
								{
									OFFSET 0.000000 0.000000 0.000000
								}
							}
						}
					}
				}
				JOINT joint_10
				{
					OFFSET 3.914307 30.461670 83.552979
					CHANNELS 3 Zrotation Yrotation Xrotation
					JOINT joint_11
					{
						OFFSET 15.543701 166.845459 -30.963013
						CHANNELS 3 Zrotation Yrotation Xrotation
						JOINT joint_12
						{
							OFFSET 35.734863 35.017700 -269.786011
							CHANNELS 3 Zrotation Yrotation Xrotation
							JOINT joint_13
							{
								OFFSET 70.506592 13.977783 -273.320007
								CHANNELS 3 Zrotation Yrotation Xrotation
								End Site
								{
									OFFSET 0.000000 0.000000 0.000000
								}
							}
						}
					}
				}
			}
		}
	}
	JOINT joint_14
	{
		OFFSET -0.314697 -95.093994 -116.004028
		CHANNELS 3 Zrotation Yrotation Xrotation
		JOINT joint_15
		{
			OFFSET -22.490723 2.017883 -455.510986
			CHANNELS 3 Zrotation Yrotation Xrotation
			JOINT joint_16
			{
				OFFSET -46.427490 7.144104 -496.360985
				CHANNELS 3 Zrotation Yrotation Xrotation
				JOINT joint_17
				{
					OFFSET 209.055420 -37.122803 -85.191002
					CHANNELS 3 Zrotation Yrotation Xrotation
					End Site
					{
						OFFSET 0.000000 0.000000 0.000000
					}
				}
			}
		}
	}
	JOINT joint_18
	{
		OFFSET 5.652832 94.642578 -116.244019
		CHANNELS 3 Zrotation Yrotation Xrotation
		JOINT joint_19
		{
			OFFSET -12.379883 -7.332642 -455.843994
			CHANNELS 3 Zrotation Yrotation Xrotation
			JOINT joint_20
			{
				OFFSET -45.227051 -8.172241 -496.457985
				CHANNELS 3 Zrotation Yrotation Xrotation
				JOINT joint_21
				{
					OFFSET 210.522949 -11.530396 -88.809004
					CHANNELS 3 Zrotation Yrotation Xrotation
					End Site
					{
						OFFSET 0.000000 0.000000 0.000000
					}
				}
			}
		}
	}
}
MOTION
Frames: 15
Frame Time: 0.016667
-2472.266357 896.446777 1208.978027 10.874706 5.093754 0.464723 -0.248357 4.094064 -2.088908 0.675550 -0.830300 0.314760 0.853843 0.891693 -0.377729 1.564155 -6.728464 -3.596049 0.000000 0.000000 0.000000 -3.472087 8.772154 -1.599611 -5.083001 8.735028 -13.115729 0.268174 -84.429414 0.450831 0.000000 0.000000 0.000000 6.483142 2.462877 6.309978 9.270275 -2.004388 14.850639 172.510989 -75.536309 159.172138 0.000000 0.000000 0.000000 3.943183 -8.194371 -3.015395 2.782257 25.311453 -0.076301 4.699999 8.061209 3.215995 0.000000 0.000000 0.000000 0.544374 -35.941987 2.288747 -2.565351 48.588528 -4.009642 2.818222 9.082324 1.492161 0.000000 0.000000 0.000000 
-2457.925781 897.355103 1207.145020 11.130532 5.418299 0.596368 -0.208522 3.588165 -2.498313 0.526667 -0.761196 0.345916 0.664796 0.846624 -0.377597 1.591238 -6.589020 -3.624273 0.000000 0.000000 0.000000 -3.534282 8.836572 -1.532061 -5.067613 8.700885 -13.097830 0.284553 -84.696539 0.735504 0.000000 0.000000 0.000000 6.022416 0.629163 6.132866 10.367496 -2.967494 14.393103 172.498836 -72.867481 155.425833 0.000000 0.000000 0.000000 4.470188 -8.323261 -2.997792 3.317085 26.356732 -0.257249 5.705655 8.025302 3.572898 0.000000 0.000000 0.000000 0.956347 -37.954856 2.068683 -1.819651 45.768874 -2.256474 3.653974 7.616384 1.731693 0.000000 0.000000 0.000000 
-2444.452148 899.716980 1204.350952 10.896608 5.126722 0.471493 -0.149036 3.673163 -2.540420 0.553039 -0.647806 0.421173 0.622139 0.833536 -0.392125 1.656043 -6.530644 -3.871662 0.000000 0.000000 0.000000 -3.485145 8.630126 -1.456150 -5.049897 8.353918 -13.160952 0.306912 -85.459019 0.215319 0.000000 0.000000 0.000000 5.865321 -1.335185 5.835145 10.557238 -3.550308 12.558946 171.833702 -73.009402 151.873986 0.000000 0.000000 0.000000 4.683908 -8.186315 -2.879925 3.643347 27.925038 -0.236474 6.560774 7.865241 3.842479 0.000000 0.000000 0.000000 0.993691 -38.505721 2.022000 -1.237711 40.718445 -0.560099 3.203620 6.145994 1.505230 0.000000 0.000000 0.000000 
-2431.235840 902.977356 1200.555054 10.108178 4.415714 0.123881 -0.018893 4.239703 -2.249588 0.741989 -0.637356 0.417070 0.780621 0.838160 -0.394880 1.721300 -6.516657 -4.166924 0.000000 0.000000 0.000000 -3.393842 8.299420 -1.352293 -4.977135 7.876089 -13.198055 0.398329 -86.275558 -0.629334 0.000000 0.000000 0.000000 5.860286 -3.065251 5.363659 10.109106 -3.809060 10.122759 170.822332 -75.142393 148.570043 0.000000 0.000000 0.000000 4.777142 -7.748037 -2.582088 3.919774 29.648314 -0.229211 7.317939 7.574486 4.045511 0.000000 0.000000 0.000000 0.834657 -37.596170 2.273903 -0.868406 33.289116 1.115347 2.028503 5.564586 1.045598 0.000000 0.000000 0.000000 
-2417.596680 906.354736 1195.435059 8.864707 3.628279 -0.356520 0.200312 4.868591 -1.771056 1.021069 -0.771996 0.297430 1.089109 0.851332 -0.373985 1.765341 -6.444416 -4.356861 0.000000 0.000000 0.000000 -3.244558 7.901371 -1.227206 -4.875491 7.349295 -13.333456 0.536809 -86.693362 -1.350731 0.000000 0.000000 0.000000 5.873135 -4.149507 4.908175 9.656665 -3.926572 8.127458 170.166186 -76.971017 146.846579 0.000000 0.000000 0.000000 4.995138 -7.063510 -2.198762 4.283899 31.121863 -0.192983 8.017178 6.967159 4.162447 0.000000 0.000000 0.000000 0.505109 -36.103282 3.032634 -1.074733 25.815372 2.110448 0.458373 6.045753 0.483538 0.000000 0.000000 0.000000 
-2403.114502 909.421082 1188.866943 7.648438 3.173369 -0.746812 0.438015 4.775214 -1.462522 1.197684 -0.741545 0.228909 1.264339 0.848930 -0.311946 1.783449 -6.227043 -4.391522 0.000000 0.000000 0.000000 -3.048924 7.384127 -1.045347 -4.724507 6.718914 -13.598919 0.761207 -86.370308 -1.845354 0.000000 0.000000 0.000000 5.891320 -4.246932 4.663404 9.278681 -3.735427 6.807714 170.021909 -76.971381 147.995391 0.000000 0.000000 0.000000 5.290086 -6.323510 -2.011685 4.643505 32.110559 0.018085 8.531005 5.845299 4.112950 0.000000 0.000000 0.000000 -0.443486 -34.803001 4.222622 -2.329329 19.289202 2.302365 -1.788647 6.016501 -0.353013 0.000000 0.000000 0.000000 
-2388.208740 912.605469 1180.973999 6.249183 2.781734 -1.150408 0.705081 4.439022 -1.132921 1.377453 -0.678112 0.166476 1.438882 0.839924 -0.237743 1.788213 -5.941252 -4.363362 0.000000 0.000000 0.000000 -2.798610 6.814629 -0.845224 -4.539050 6.042646 -13.936844 1.035802 -85.647630 -2.216975 0.000000 0.000000 0.000000 5.951953 -3.798567 4.588286 8.827506 -3.327419 5.737640 170.098990 -76.179105 150.734234 0.000000 0.000000 0.000000 5.636064 -5.461436 -1.920906 5.032573 32.874634 0.350351 8.933048 4.343451 3.954121 0.000000 0.000000 0.000000 -1.834378 -33.200313 5.685571 -4.248886 12.960516 2.557283 -4.139942 5.742761 -1.225173 0.000000 0.000000 0.000000 
-2373.455322 916.404968 1171.802002 4.467545 2.202586 -1.679911 1.043335 4.445450 -0.551320 1.686623 -0.789809 0.005909 1.789471 0.842839 -0.186592 1.790460 -5.718690 -4.343882 0.000000 0.000000 0.000000 -2.426591 6.465956 -0.778833 -4.421233 5.566743 -14.313337 1.202937 -85.130332 -2.333197 0.000000 0.000000 0.000000 6.011808 -3.641857 4.640782 8.649080 -3.055734 4.860320 170.303362 -75.617256 152.467163 0.000000 0.000000 0.000000 6.076853 -4.517218 -1.817888 5.531120 33.784933 0.738409 9.418759 2.639679 3.791075 0.000000 0.000000 0.000000 -2.821132 -31.445425 6.920703 -5.692542 8.021497 3.311072 -5.542411 6.550663 -1.678432 0.000000 0.000000 0.000000 
-2358.809326 921.111755 1160.650024 2.491320 1.566116 -2.254867 1.494750 4.523308 0.122226 2.077540 -0.907910 -0.136290 2.208343 0.855497 -0.161497 1.786492 -5.595174 -4.332704 0.000000 0.000000 0.000000 -1.797445 6.615108 -1.030593 -4.460893 5.519838 -14.672445 1.112789 -85.164089 -2.050268 0.000000 0.000000 0.000000 6.088107 -4.122660 4.891969 8.953919 -3.016629 4.220592 170.637523 -75.737596 152.010716 0.000000 0.000000 0.000000 6.552365 -3.651156 -1.898494 6.062336 34.966254 1.334151 9.977712 0.553942 3.587316 0.000000 0.000000 0.000000 -3.162068 -30.003286 7.427479 -6.207579 5.419698 4.179526 -5.929244 8.781239 -1.694643 0.000000 0.000000 0.000000 
-2344.316895 926.433594 1148.218994 0.621891 1.008760 -2.709729 1.965037 4.401365 0.622800 2.420665 -0.900474 -0.155824 2.525310 0.867308 -0.142151 1.775055 -5.534969 -4.305430 0.000000 0.000000 0.000000 -1.035753 7.000219 -1.439273 -4.580690 5.675812 -15.065393 0.897361 -85.431879 -1.515952 0.000000 0.000000 0.000000 6.134475 -4.858749 5.271054 9.617145 -3.070114 3.823211 171.155894 -76.072412 150.507712 0.000000 0.000000 0.000000 7.024508 -2.913021 -2.280678 6.551340 36.302999 2.114529 10.531844 -1.762713 3.341629 0.000000 0.000000 0.000000 -3.240898 -29.041742 7.332591 -6.270743 4.633831 4.900466 -5.911806 11.308620 -1.569441 0.000000 0.000000 0.000000 
-2330.689453 932.008057 1136.645996 -0.952608 0.436261 -2.972176 2.292899 4.381804 0.948303 2.641886 -0.887268 -0.162302 2.717721 0.888311 -0.112838 1.763552 -5.560856 -4.265940 0.000000 0.000000 0.000000 -0.465646 7.074191 -1.664844 -4.639681 5.593110 -15.606702 0.821608 -85.543418 -1.027679 0.000000 0.000000 0.000000 6.005430 -5.545270 5.494383 10.458198 -3.173857 3.689957 171.826185 -76.207919 148.987791 0.000000 0.000000 0.000000 7.473843 -2.300621 -2.778235 6.982598 37.814813 2.757343 11.078352 -3.700873 3.158903 0.000000 0.000000 0.000000 -3.111010 -28.678475 7.022650 -6.116955 5.222744 5.440754 -5.736393 13.062576 -1.434697 0.000000 0.000000 0.000000 
-2318.042969 938.318237 1126.120972 -2.191593 -0.240008 -3.011427 2.383642 4.565169 1.150263 2.664247 -0.911198 -0.223889 2.734414 0.935884 -0.048312 1.762280 -5.703961 -4.236911 0.000000 0.000000 0.000000 -0.178812 6.504170 -1.517972 -4.589799 5.003391 -16.583679 1.006748 -85.349883 -0.647271 0.000000 0.000000 0.000000 5.600017 -6.088861 5.335075 11.560348 -3.342568 4.007196 172.764364 -75.833547 147.723228 0.000000 0.000000 0.000000 7.885012 -1.808603 -3.337380 7.352292 39.682211 3.118337 11.643471 -5.162259 3.061423 0.000000 0.000000 0.000000 -2.636301 -29.069856 6.425886 -5.682295 7.548332 6.069241 -5.334692 13.453546 -1.284161 0.000000 0.000000 0.000000 
-2306.261963 944.879028 1116.456055 -3.218276 -0.939969 -2.908784 2.359776 4.900945 1.239085 2.587791 -0.975508 -0.314276 2.666296 1.006022 0.027430 1.759473 -5.929732 -4.189505 0.000000 0.000000 0.000000 -0.116959 5.570659 -1.166811 -4.455702 4.153445 -17.694029 1.367872 -84.937791 -0.280149 0.000000 0.000000 0.000000 5.041163 -6.604822 5.006993 12.850180 -3.598761 4.631071 173.866549 -75.232335 146.426592 0.000000 0.000000 0.000000 8.258742 -1.421164 -3.922702 7.669363 41.706983 3.289746 12.181023 -6.239702 3.017492 0.000000 0.000000 0.000000 -1.844391 -29.981698 5.699596 -4.951932 11.151427 6.518791 -4.742457 13.180324 -1.095346 0.000000 0.000000 0.000000 
-2295.713623 949.870789 1109.214966 -3.951481 -1.415495 -2.747851 2.361171 5.285748 1.085779 2.546466 -1.053508 -0.352639 2.623672 1.076083 0.058339 1.738364 -6.164305 -4.086276 0.000000 0.000000 0.000000 -0.312387 4.697504 -0.832506 -4.234108 3.417477 -18.163506 1.824431 -84.346203 -0.027457 0.000000 0.000000 0.000000 4.553865 -7.052884 4.940906 13.797889 -3.863263 4.999125 174.667311 -74.916750 145.451132 0.000000 0.000000 0.000000 8.513676 -1.192677 -4.402918 7.866979 43.371739 3.342650 12.522732 -6.731371 3.009404 0.000000 0.000000 0.000000 -1.177299 -31.063197 5.533989 -4.354824 14.578637 5.989517 -4.415970 12.788206 -1.006061 0.000000 0.000000 0.000000 
-2286.881836 952.007874 1105.449951 -4.166556 -1.439192 -2.476139 2.414588 5.658521 0.387853 2.565304 -1.093250 -0.243041 2.603879 1.146686 0.009887 1.677775 -6.475559 -3.873001 0.000000 0.000000 0.000000 -0.916219 4.005845 -0.542789 -3.865701 2.932473 -17.411378 2.418402 -83.532448 -0.087285 0.000000 0.000000 0.000000 4.158762 -7.322167 5.529590 14.080590 -4.053765 4.736979 174.863307 -75.082555 145.156910 0.000000 0.000000 0.000000 8.547139 -1.346625 -4.806896 7.830744 44.602724 3.354871 12.558485 -6.488905 3.028306 0.000000 0.000000 0.000000 -0.900425 -32.553481 6.451734 -4.160204 17.690130 3.451420 -4.726124 12.239990 -1.155027 0.000000 0.000000 0.000000 
